<svg aria-hidden="true" style="position: absolute; width: 0; height: 0; overflow: hidden;" version="1.1" xmlns="http://www.w3.org/2000/svg" xmlns:xlink="http://www.w3.org/1999/xlink">
<defs>
<symbol id="icon-Logo-1" viewBox="0 0 79 32">
<path d="M0 0v20.706h79.059v-20.706h-24.188c-1.788 0-3.576 0.32-5.252 0.979-1.016 0.395-1.939 0.998-2.729 1.751l-1.016 0.998c-0.696 0.696-1.336 1.449-1.882 2.259-1.619 2.372-2.974 4.894-4.066 7.548l-2.805-6.042c-0.828-1.788-2.108-3.332-3.689-4.499-2.673-1.958-5.873-2.993-9.167-2.993h-24.264z"></path>
<path d="M0 24.471h79.059v7.529h-79.059v-7.529z"></path>
</symbol>
<symbol id="icon-Logo" viewBox="0 0 343 32">
<path d="M0 0v20.706h79.059v-20.706h-24.188c-1.788 0-3.576 0.32-5.252 0.979-1.016 0.395-1.939 0.998-2.729 1.751l-1.016 0.998c-0.696 0.696-1.336 1.449-1.882 2.259-1.619 2.372-2.974 4.894-4.066 7.548l-2.805-6.042c-0.828-1.788-2.108-3.332-3.689-4.499-2.673-1.958-5.873-2.993-9.167-2.993h-24.264z"></path>
<path d="M0 24.471h79.059v7.529h-79.059v-7.529z"></path>
<path d="M217.751 27.595c3.445 0 6.344-1.186 8.753-3.558q1.656-1.675 2.56-3.689 1.016-2.315 1.016-5.082 0-2.805-1.054-5.139-0.885-1.976-2.522-3.595c-2.409-2.409-5.308-3.595-8.753-3.595-3.426 0-6.344 1.186-8.734 3.595-2.372 2.372-3.558 5.271-3.558 8.734 0 3.426 1.186 6.362 3.558 8.772 2.391 2.372 5.308 3.558 8.734 3.558zM101.798 27.125h5.045l-5.252-8.941q1.111-0.527 1.995-1.299 0.753-0.659 1.318-1.525 0.753-1.129 1.054-2.372 0.207-0.828 0.207-1.713 0-1.619-0.565-3.012-0.584-1.393-1.732-2.56-1.129-1.111-2.485-1.694-1.431-0.602-3.106-0.602h-9.487v23.718h4.668v-8.226h3.558l4.781 8.226zM114.955 22.645v-5.308h8.979v-4.405h-8.979v-5.045h9.826v-4.48h-14.513v23.718h14.682v-4.48h-9.995zM144.527 27.125h5.082l-8.339-23.718h-5.798l-8.301 23.718h5.064l1.412-4.273h9.449l1.431 4.273zM162.014 3.407h-9.431v23.718h9.431q2.692 0 4.894-1.054 1.769-0.847 3.238-2.372c2.184-2.259 3.275-5.064 3.275-8.433s-1.092-6.174-3.275-8.433c-2.165-2.278-4.875-3.426-8.132-3.426zM185.487 23.096c1.487 2.993 4.104 4.499 7.831 4.499q3.049 0 5.158-1.412 0.433-0.301 0.828-0.659c1.562-1.374 2.353-3.294 2.353-5.779v-16.339h-4.649v16.339c0 1.035-0.32 1.845-0.941 2.428-0.621 0.565-1.525 0.847-2.748 0.847-1.788 0-3.049-0.734-3.802-2.24l-4.028 2.315zM236.216 25.355c1.694 1.506 3.878 2.24 6.513 2.24 2.673 0 4.838-0.734 6.532-2.24 1.694-1.487 2.541-3.482 2.541-5.986v-15.962h-4.668v15.586c0 1.261-0.376 2.259-1.111 2.974s-1.826 1.054-3.294 1.054c-1.468 0-2.579-0.339-3.313-1.054s-1.092-1.713-1.092-2.974v-15.586h-4.649v15.962c0 2.504 0.847 4.499 2.541 5.986zM269.704 27.125h5.064l-5.271-8.941c1.393-0.64 2.504-1.581 3.332-2.824q0.753-1.129 1.054-2.372 0.207-0.828 0.207-1.713c0-2.184-0.772-4.028-2.315-5.572-1.525-1.525-3.388-2.296-5.591-2.296h-9.487v23.718h4.687v-8.226h3.558l4.762 8.226zM291.915 3.407v14.475l-10.165-14.475h-3.558v23.718h4.668v-14.494l10.165 14.494h3.558v-23.718h-4.668zM306.334 22.645v-5.308h8.979v-4.405h-8.979v-5.045h9.826v-4.48h-14.494v23.718h14.664v-4.48h-9.995zM339.087 3.407h-5.289l-5.158 9.901-5.139-9.901h-5.289l8.094 14.475v9.242h4.649v-9.242l8.132-14.475zM217.751 23.021c-2.184 0-4.009-0.715-5.459-2.165q-0.772-0.791-1.28-1.732-0.922-1.694-0.922-3.859 0-2.184 0.922-3.859 0.508-0.941 1.28-1.732c1.468-1.468 3.294-2.202 5.459-2.202s3.991 0.734 5.459 2.202q0.791 0.791 1.299 1.732 0.904 1.675 0.904 3.859 0 2.165-0.904 3.859-0.508 0.941-1.299 1.732c-1.449 1.449-3.256 2.165-5.459 2.165zM93.459 7.774h4.819q0.546 0 1.035 0.188 0.678 0.245 1.224 0.828 0.395 0.414 0.621 0.922 0.339 0.696 0.339 1.562 0 0.809-0.301 1.487-0.245 0.546-0.659 1.016-0.546 0.584-1.224 0.828-0.489 0.188-1.035 0.188h-4.819v-7.021zM261.384 7.774h4.8q0.565 0 1.054 0.188 0.678 0.245 1.224 0.828 0.395 0.414 0.621 0.922 0.32 0.696 0.32 1.562 0 0.809-0.282 1.487-0.245 0.546-0.659 1.016-0.546 0.584-1.224 0.828-0.489 0.188-1.054 0.188h-4.8v-7.021zM162.014 22.645h-4.744v-14.758h4.744q1.958 0 3.445 0.828 0.866 0.471 1.562 1.224c1.299 1.355 1.939 3.144 1.939 5.327 0 2.165-0.64 3.953-1.939 5.346q-0.678 0.715-1.487 1.186-1.525 0.847-3.52 0.847zM135.134 18.485l3.256-9.694 3.256 9.694h-6.513z"></path>
</symbol>
<symbol id="icon-gg_check-o" viewBox="0 0 32 32">
<path d="M14.992 21.76l-5.392-6.096 1.792-2.016 3.6 4.048 7.2-8.096 1.808 2.016-9.008 10.128v0.016z"></path>
<path d="M0 16c0 8.832 7.152 16 16 16 8.832 0 16-7.168 16-16 0-8.848-7.168-16-16-16-8.848 0-16 7.152-16 16zM16 29.088c-1.728 0-3.424-0.336-5.024-1.008-1.584-0.656-3.024-1.616-4.24-2.832s-2.176-2.656-2.832-4.24c-0.672-1.6-1.008-3.296-1.008-5.008 0-1.728 0.336-3.424 1.008-5.024 0.656-1.584 1.616-3.024 2.832-4.24s2.656-2.176 4.24-2.832c1.6-0.672 3.296-1.008 5.024-1.008 3.456 0 6.8 1.392 9.248 3.84s3.84 5.792 3.84 9.264c0 3.472-1.392 6.8-3.84 9.248s-5.792 3.84-9.248 3.84z"></path>
</symbol>
<symbol id="icon-pajamas_error" viewBox="0 0 32 32">
<path d="M16 28.992c-3.456 0-6.768-1.376-9.2-3.808s-3.808-5.744-3.808-9.184c0-3.456 1.376-6.768 3.808-9.2s5.744-3.808 9.2-3.808c3.44 0 6.752 1.376 9.184 3.808s3.808 5.744 3.808 9.2c0 3.44-1.376 6.752-3.808 9.184s-5.744 3.808-9.184 3.808zM16 32c4.24 0 8.304-1.696 11.312-4.688 2.992-3.008 4.688-7.072 4.688-11.312 0-4.256-1.696-8.32-4.688-11.328-3.008-2.992-7.072-4.672-11.312-4.672-4.256 0-8.32 1.68-11.328 4.672-2.992 3.008-4.672 7.072-4.672 11.328 0 4.24 1.68 8.304 4.672 11.312 3.008 2.992 7.072 4.688 11.328 4.688zM18 22c0 0.528-0.224 1.024-0.592 1.408-0.384 0.368-0.88 0.592-1.408 0.592-0.544 0-1.040-0.224-1.424-0.592-0.368-0.384-0.576-0.88-0.576-1.408 0-0.544 0.208-1.040 0.576-1.424 0.384-0.368 0.88-0.576 1.424-0.576 0.528 0 1.024 0.208 1.408 0.576 0.368 0.384 0.592 0.88 0.592 1.424zM17.488 9.488c0-0.4-0.16-0.768-0.432-1.056-0.288-0.288-0.672-0.432-1.056-0.432-0.4 0-0.784 0.144-1.072 0.432-0.272 0.288-0.432 0.656-0.432 1.056v7.008c0 0.4 0.16 0.768 0.432 1.056 0.288 0.288 0.672 0.448 1.072 0.448 0.384 0 0.768-0.16 1.056-0.448 0.272-0.288 0.432-0.656 0.432-1.056v-7.008z"></path>
</symbol>
<symbol id="icon-eye-off" viewBox="0 0 32 32">
<path stroke="#000000" stroke-linejoin="round" stroke-linecap="butt" stroke-miterlimit="4" stroke-width="2.0800" d="M23.92 23.92c-2.288 1.728-5.056 2.688-7.92 2.736-9.344 0-14.672-10.656-14.672-10.656 1.664-3.104 3.952-5.792 6.752-7.936M13.2 5.648c0.912-0.224 1.856-0.32 2.8-0.32 9.328 0 14.656 10.672 14.656 10.672-0.8 1.504-1.776 2.928-2.88 4.24M18.816 18.816c-0.368 0.4-0.8 0.704-1.296 0.928s-1.024 0.336-1.552 0.352c-0.544 0-1.072-0.096-1.568-0.288-0.496-0.208-0.96-0.512-1.344-0.88-0.368-0.384-0.672-0.848-0.88-1.344-0.192-0.496-0.288-1.024-0.288-1.568 0.016-0.528 0.128-1.056 0.352-1.552s0.528-0.928 0.928-1.296"></path>
<path stroke="#000000" stroke-linejoin="round" stroke-linecap="round" stroke-miterlimit="4" stroke-width="2.0800" d="M1.328 1.328l29.328 29.328"></path>
</symbol>
<symbol id="icon-eye" viewBox="0 0 32 32">
<path stroke="#000000" stroke-linejoin="round" stroke-linecap="butt" stroke-miterlimit="4" stroke-width="2.0800" d="M16 5.328c9.328 0 14.656 10.672 14.656 10.672s-5.328 10.656-14.656 10.656c-9.344 0-14.672-10.656-14.672-10.656s5.328-10.672 14.672-10.672z"></path>
<path stroke="#000000" stroke-linejoin="round" stroke-linecap="butt" stroke-miterlimit="4" stroke-width="2.0800" d="M16 20c-2.224 0-4-1.792-4-4 0-2.224 1.776-4 4-4 2.208 0 4 1.776 4 4 0 2.208-1.792 4-4 4z"></path>
</symbol>
<symbol id="icon-log-in" viewBox="0 0 32 32">
<path stroke-linejoin="round" stroke-linecap="round" stroke-miterlimit="4" stroke-width="2.6667" d="M18.667 22.667l6.667-6.667-6.667-6.667"></path>
<path stroke-linejoin="round" stroke-linecap="round" stroke-miterlimit="4" stroke-width="2.6667" d="M25.333 16h-18.667"></path>
</symbol>
<symbol id="icon-attachment-2" viewBox="0 0 32 32">
<path d="M28.089 18.898l-15.004-15.004c-2.489-2.596-6.596-2.596-9.191-0.107-2.596 2.507-2.596 6.702 0 9.209l0.107 0.089 2.791 2.916 1.404-1.404-2.898-2.898c-1.707-1.707-1.707-4.604 0-6.311 1.689-1.689 4.587-1.796 6.293-0.089l0.107 0.089 14.898 14.898c1.796 1.707 1.796 4.604 0.089 6.311-1.689 1.796-4.587 1.796-6.293 0.089l-0.107-0.089-7.396-7.396c-0.996-1.013-0.889-2.613 0-3.502 0.48-0.444 1.102-0.676 1.76-0.676 0.64 0 1.262 0.231 1.742 0.676l4.107 4.089 1.387-1.387-4.196-4.213c-0.427-0.391-0.924-0.711-1.476-0.924-0.551-0.196-1.12-0.302-1.707-0.284s-1.173 0.16-1.707 0.391c-0.533 0.249-1.013 0.587-1.404 1.013-1.6 1.707-1.6 4.409 0 6.204l7.502 7.502c2.489 2.596 6.596 2.596 9.191 0.107 2.596-2.507 2.596-6.702 0-9.298z"></path>
</symbol>
<symbol id="icon-pie-chart-02" viewBox="0 0 32 32">
<path stroke-linejoin="round" stroke-linecap="butt" stroke-miterlimit="4" stroke-width="3.2" d="M22.192 24.592c-1.168 1.744-2.832 3.12-4.784 3.92-1.952 0.816-4.096 1.024-6.16 0.608-2.080-0.416-3.968-1.424-5.472-2.912-1.488-1.504-2.496-3.392-2.912-5.472-0.416-2.064-0.208-4.208 0.608-6.16 0.8-1.952 2.176-3.616 3.92-4.784 1.472-0.976 3.136-1.568 4.864-1.744 0.336-0.032 0.512-0.048 0.656 0.016 0.144 0.048 0.256 0.16 0.336 0.288 0.080 0.16 0.080 0.336 0.080 0.704v8.544c0 0.368 0 0.56 0.064 0.688s0.176 0.24 0.304 0.304c0.128 0.064 0.32 0.064 0.688 0.064h8.544c0.368 0 0.544 0 0.704 0.080 0.128 0.080 0.24 0.192 0.288 0.336 0.064 0.144 0.048 0.32 0.016 0.656-0.176 1.728-0.768 3.392-1.744 4.864z"></path>
<path stroke-linejoin="round" stroke-linecap="butt" stroke-miterlimit="4" stroke-width="3.2" d="M26.208 5.776c1.744 1.76 2.816 4.048 3.056 6.48 0.048 0.336 0.064 0.512-0.016 0.656-0.048 0.144-0.16 0.256-0.288 0.336-0.144 0.080-0.336 0.080-0.704 0.080h-8.528c-0.384 0-0.56 0-0.704-0.080-0.128-0.064-0.224-0.16-0.288-0.288-0.080-0.144-0.080-0.32-0.080-0.704v-8.528c0-0.368 0-0.56 0.080-0.704 0.080-0.128 0.192-0.24 0.336-0.288 0.144-0.080 0.32-0.064 0.656-0.032 2.432 0.256 4.72 1.328 6.48 3.072z"></path>
</symbol>
<symbol id="icon-hourglass-01" viewBox="0 0 32 32">
<path stroke-linejoin="round" stroke-linecap="butt" stroke-miterlimit="4" stroke-width="3.2" d="M24 29.328v-3.664c0-1.104 0-1.664-0.144-2.176-0.128-0.448-0.32-0.88-0.592-1.264-0.304-0.432-0.736-0.784-1.568-1.488l-11.408-9.488c-0.832-0.704-1.264-1.056-1.568-1.488-0.272-0.384-0.464-0.816-0.592-1.264-0.128-0.512-0.128-1.072-0.128-2.176v-3.664M24 2.656v3.664c0 1.104 0 1.664-0.144 2.176-0.128 0.448-0.32 0.88-0.592 1.264-0.304 0.432-0.736 0.784-1.568 1.488l-5.696 4.752M8 29.328v-3.664c0-1.104 0-1.664 0.128-2.176 0.128-0.448 0.32-0.88 0.592-1.264 0.304-0.432 0.736-0.784 1.568-1.488l5.712-4.736"></path>
<path stroke-linejoin="round" stroke-linecap="butt" stroke-miterlimit="4" stroke-width="3.2" d="M5.328 2.656h21.328M5.328 29.328h21.328"></path>
</symbol>
<symbol id="icon-block-1" viewBox="0 0 32 32">
<path stroke-linejoin="miter" stroke-linecap="butt" stroke-miterlimit="4" stroke-width="1.28" d="M31.36 16c0 8.483-6.877 15.36-15.36 15.36s-15.36-6.877-15.36-15.36c0-8.483 6.877-15.36 15.36-15.36s15.36 6.877 15.36 15.36z"></path>
<path d="M11.52 9.6h8.96c1.060 0 1.92 0.86 1.92 1.92v8.96c0 1.060-0.86 1.92-1.92 1.92h-8.96c-1.060 0-1.92-0.86-1.92-1.92v-8.96c0-1.060 0.86-1.92 1.92-1.92z"></path>
</symbol>
<symbol id="icon-block" viewBox="0 0 32 32">
<path d="M28.8 16c0 7.069-5.731 12.8-12.8 12.8s-12.8-5.731-12.8-12.8c0-7.069 5.731-12.8 12.8-12.8s12.8 5.731 12.8 12.8z"></path>
<path stroke-linejoin="miter" stroke-linecap="butt" stroke-miterlimit="4" stroke-width="1.28" d="M31.36 16c0 8.483-6.877 15.36-15.36 15.36s-15.36-6.877-15.36-15.36c0-8.483 6.877-15.36 15.36-15.36s15.36 6.877 15.36 15.36z"></path>
</symbol>
</defs>
</svg>
